<?xml version="1.0" standalone="no"?>
<!DOCTYPE svg PUBLIC "-//W3C//DTD SVG 20010904//EN"
 "http://www.w3.org/TR/2001/REC-SVG-20010904/DTD/svg10.dtd">
<svg version="1.0" xmlns="http://www.w3.org/2000/svg"
 width="16.000000pt" height="16.000000pt" viewBox="0 0 16.000000 16.000000"
 preserveAspectRatio="xMidYMid meet">
<metadata>
Created by potrace 1.11, written by Peter Selinger 2001-2013
</metadata>
<g transform="translate(0.000000,16.000000) scale(0.006250,-0.006250)"
fill="#000000" stroke="none">
<path d="M360 2550 c0 -5 -13 -10 -30 -10 l-30 0 0 -74 c0 -58 -5 -83 -21
-110 -12 -20 -25 -36 -30 -36 -5 0 -9 -6 -9 -14 0 -7 -7 -19 -15 -26 -10 -8
-15 -31 -15 -67 l0 -55 -26 31 c-40 48 -54 41 -54 -25 0 -53 -1 -55 -22 -48
-13 4 -32 7 -43 6 -12 -1 -15 2 -8 6 16 10 -26 389 -44 396 -10 4 -13 -53 -13
-294 l0 -300 71 0 c62 0 70 -2 59 -15 -8 -10 -31 -15 -71 -15 l-59 0 0 -765
c0 -421 2 -765 4 -765 3 0 12 24 21 53 10 28 23 59 30 67 6 8 20 35 29 59 9
24 24 54 32 65 8 12 14 44 14 81 0 73 11 112 47 173 15 26 39 74 54 107 28 66
103 187 155 252 19 23 43 62 54 87 10 25 23 46 28 46 5 0 21 11 35 24 31 28
157 79 257 103 47 11 72 22 75 34 7 20 34 29 98 29 l47 0 0 39 0 40 33 -30
c28 -26 32 -27 36 -12 2 10 7 20 12 24 5 3 4 20 -1 39 -15 52 -13 62 9 55 18
-5 19 -3 10 27 -5 18 -6 48 -3 66 6 30 8 32 23 17 18 -16 41 -20 41 -7 0 4 -7
16 -15 26 -18 24 -19 36 -2 36 16 0 87 76 87 94 0 15 -21 26 -50 26 -26 0 -43
23 -28 38 9 9 9 12 0 12 -7 0 -12 7 -12 15 0 21 7 19 50 -15 40 -31 78 -38
124 -20 33 12 114 -12 154 -45 29 -24 167 -82 250 -104 23 -7 42 -16 42 -21 0
-6 9 -10 21 -10 32 0 18 -21 -37 -59 -27 -18 -48 -39 -46 -45 1 -7 -9 -18 -22
-24 -32 -14 -42 -48 -21 -71 27 -30 157 -48 139 -20 -5 8 17 14 39 10 4 -1 17
7 28 18 21 19 21 19 -39 14 -52 -5 -60 -3 -64 14 -8 30 9 62 39 74 16 5 53 22
83 36 51 24 53 27 33 36 -37 16 -30 36 28 80 40 30 64 35 55 11 -3 -8 -2 -12
4 -9 6 3 10 -1 10 -9 0 -9 -4 -16 -9 -16 -20 0 -20 -51 -1 -102 11 -29 20 -66
20 -82 0 -23 3 -26 14 -17 16 13 19 7 30 -60 5 -30 2 -42 -19 -67 -25 -30 -25
-32 -10 -61 8 -17 31 -38 50 -47 20 -9 42 -29 50 -44 10 -19 31 -33 75 -49 40
-15 82 -41 123 -78 34 -30 85 -72 114 -92 55 -38 59 -45 104 -156 l28 -70 1
571 0 571 -37 7 c-21 3 -53 6 -71 6 -27 0 -33 4 -30 18 3 15 13 17 71 13 l67
-3 0 211 0 211 -79 0 c-85 0 -90 -4 -91 -67 0 -36 -27 -27 -40 12 l-12 35
-248 0 c-155 0 -251 4 -255 10 -4 6 -108 10 -279 10 l-272 0 -57 -31 c-31 -17
-59 -35 -62 -40 -4 -5 -13 -9 -22 -9 -12 0 -14 9 -11 40 2 28 0 40 -9 40 -9 0
-13 -15 -13 -43 0 -36 -5 -46 -36 -72 -20 -17 -54 -60 -76 -98 -21 -37 -43
-65 -48 -62 -4 3 -9 60 -9 127 -1 66 -5 126 -8 131 -4 6 -66 7 -168 3 -112 -5
-165 -4 -170 3 -8 14 -235 15 -235 1z m548 -115 c0 -47 -4 -85 -9 -85 -8 0
-11 18 -14 107 0 18 -4 35 -8 39 -4 4 -7 -59 -7 -139 l0 -147 -65 0 -65 0 0
135 0 134 -67 3 c-39 2 -68 8 -70 15 -6 17 19 21 169 22 l137 1 -1 -85z m-554
33 c-4 -24 -8 -45 -10 -47 -7 -8 -12 4 -19 47 -6 38 -5 42 14 42 19 0 21 -4
15 -42z m1710 -20 c-9 -18 -26 -43 -37 -55 -11 -13 -18 -23 -14 -23 22 0 109
37 147 63 l45 30 -34 -36 c-45 -47 -149 -84 -165 -58 -3 5 10 35 29 67 19 32
36 63 36 68 1 6 3 3 6 -6 2 -9 -3 -32 -13 -50z m-1354 -73 c0 -33 -2 -35 -33
-35 -26 0 -36 6 -45 25 -19 40 -15 45 33 45 45 0 45 0 45 -35z m-16 -71 c16
-6 23 -34 8 -34 -10 0 -32 22 -32 32 0 10 3 10 24 2z m96 -124 c0 -5 -11 -10
-25 -10 -14 0 -25 5 -25 10 0 6 11 10 25 10 14 0 25 -4 25 -10z m-573 -52 c-3
-8 -6 -5 -6 6 -1 11 2 17 5 13 3 -3 4 -12 1 -19z m663 3 c0 -41 -11 -51 -56
-51 -38 0 -45 4 -59 30 -8 16 -15 31 -15 35 0 3 29 5 65 5 57 0 65 -2 65 -19z
m1440 0 c0 -27 -6 -29 -101 -40 -93 -10 -109 -5 -101 34 4 25 6 25 103 25 91
0 99 -2 99 -19z m-1462 -123 c5 -26 -35 -23 -48 3 -11 19 -9 20 17 17 17 -2
29 -10 31 -20z"/>
<path d="M775 2450 c3 -5 10 -10 16 -10 5 0 9 5 9 10 0 6 -7 10 -16 10 -8 0
-12 -4 -9 -10z"/>
<path d="M2340 2556 c0 -2 7 -6 15 -10 8 -3 15 -1 15 4 0 6 -7 10 -15 10 -8 0
-15 -2 -15 -4z"/>
<path d="M1280 1741 c8 -5 36 -13 62 -16 26 -4 48 -11 48 -16 0 -4 -8 -24 -17
-44 -20 -39 -44 -49 -99 -43 l-35 4 22 -17 c36 -27 135 -18 185 16 47 32 49
44 9 65 -16 8 -32 16 -35 18 -2 2 2 7 10 12 23 14 9 19 -80 25 -59 5 -81 3
-70 -4z"/>
<path d="M832 1381 c-6 -17 -15 -31 -20 -31 -5 0 2 -22 15 -50 21 -45 41 -69
31 -38 -3 7 4 21 14 32 24 26 23 45 -2 39 -14 -4 -20 0 -20 10 0 8 4 17 9 19
5 2 4 14 -3 27 l-13 24 -11 -32z"/>
<path d="M1623 1377 c-43 -36 -62 -39 -93 -17 -31 22 -55 26 -66 9 -8 -13 14
-29 36 -28 31 3 40 -2 40 -19 0 -14 8 -17 44 -17 40 0 46 3 60 33 9 17 20 32
26 32 5 0 10 7 10 15 0 22 -24 18 -57 -8z"/>
<path d="M2027 1189 c-45 -62 -55 -84 -48 -97 9 -15 11 -14 21 8 44 97 93 158
133 163 28 3 27 4 -8 5 -39 1 -42 -2 -98 -79z"/>
<path d="M1421 1241 c-31 -3 -56 -12 -59 -19 -3 -9 10 -11 55 -6 71 7 83 10
83 24 0 5 -6 9 -12 8 -7 -1 -37 -4 -67 -7z"/>
<path d="M957 1208 c9 -11 43 -125 41 -141 0 -1 5 -20 11 -42 6 -22 13 -58 17
-80 3 -22 10 -48 15 -57 6 -10 5 -19 -1 -23 -6 -4 -5 -11 4 -20 13 -13 28 -79
32 -135 0 -14 4 -32 7 -40 14 -36 23 -110 21 -177 -2 -64 0 -73 16 -73 11 0
22 12 29 30 13 38 20 38 19 -1 -1 -23 -7 -33 -27 -41 -15 -6 -21 -12 -13 -15
19 -7 14 -23 -13 -35 -18 -8 -24 -17 -19 -30 7 -23 -22 -35 -47 -20 -24 15
-56 15 -61 0 -5 -15 -94 -13 -127 4 -52 27 -69 49 -76 99 -4 27 -10 49 -14 49
-4 0 -17 9 -29 20 -20 19 -22 19 -23 3 -1 -10 -1 -21 0 -26 0 -4 -7 -7 -16 -7
-15 0 -15 -1 -1 -12 19 -16 31 -48 18 -48 -6 0 -10 5 -10 10 0 6 -6 10 -14 10
-7 0 -16 10 -20 22 -9 34 -8 38 9 38 8 0 15 7 15 15 0 12 -4 13 -19 6 -25 -14
-41 23 -50 115 -4 45 -13 77 -23 88 -23 22 -29 7 -17 -39 14 -51 0 -61 -38
-26 -36 33 -67 47 -61 29 3 -7 31 -31 63 -53 71 -49 79 -65 33 -65 -52 0 -66
-15 -28 -29 22 -7 30 -15 26 -26 -3 -9 6 -25 21 -40 35 -32 24 -41 -18 -16
-19 11 -47 28 -63 37 l-28 16 27 -36 c17 -23 42 -40 66 -48 54 -16 50 -32 -6
-25 -50 7 -61 -6 -21 -25 41 -18 45 -58 7 -58 -9 0 -22 5 -29 12 -9 9 -12 8
-12 -5 0 -9 5 -17 10 -17 17 0 11 -18 -15 -44 -31 -31 -11 -42 39 -21 l34 14
20 -42 c21 -45 19 -81 -3 -51 -7 10 -10 25 -8 34 6 22 -22 46 -30 26 -3 -8
-25 -25 -48 -36 -22 -12 -39 -18 -36 -13 3 4 -25 7 -61 6 -112 -3 -121 -4 -72
-14 24 -5 55 -7 69 -4 14 2 30 0 36 -5 16 -13 65 -31 64 -22 -3 20 2 32 15 32
8 0 18 9 21 20 11 36 33 17 26 -23 -1 -4 3 -16 9 -27 7 -13 7 -21 -1 -26 -9
-5 -6 -11 6 -21 15 -10 16 -13 3 -13 -11 0 -14 -7 -10 -26 l5 -25 293 3 c188
2 297 7 304 14 7 7 1 17 -20 32 -16 13 -30 19 -30 14 0 -9 -93 -5 -120 5 -8 3
-22 7 -30 8 -61 10 -107 27 -129 49 l-25 26 32 -4 c21 -3 32 0 32 8 0 18 45
40 69 33 14 -3 26 2 36 16 8 11 24 21 37 23 13 1 23 3 23 4 0 1 13 3 29 5 32
4 66 31 66 52 0 7 6 13 13 13 25 0 61 173 40 194 -13 13 -11 36 4 36 9 0 13 7
11 18 -2 9 -9 16 -16 15 -6 -2 -9 4 -6 12 4 8 9 15 13 15 4 0 7 8 7 19 0 10
-5 17 -12 14 -18 -7 -4 49 17 69 10 10 23 19 30 20 17 4 41 47 33 59 -3 5 -12
9 -19 9 -9 0 -12 6 -9 15 4 11 2 13 -9 9 -22 -8 -57 13 -57 35 0 13 7 18 23
17 13 -1 21 -7 19 -16 -2 -10 0 -11 10 -3 7 6 23 14 35 17 18 6 22 3 25 -21 2
-15 8 -27 14 -26 15 3 11 -81 -4 -100 -7 -8 -9 -17 -5 -20 3 -4 1 -7 -6 -7 -7
0 -9 -5 -6 -10 4 -7 12 -7 24 0 10 5 21 7 24 4 7 -7 28 33 26 49 -1 6 3 23 9
37 10 21 11 13 7 -45 -3 -38 -10 -97 -15 -130 -5 -33 -19 -130 -31 -215 -20
-151 -51 -317 -64 -352 -7 -17 3 -18 114 -18 67 0 121 3 121 8 0 30 -23 137
-36 167 l-15 38 -17 -24 c-9 -13 -15 -32 -14 -41 2 -10 -2 -18 -7 -18 -6 0
-11 9 -11 20 0 11 -4 20 -10 20 -5 0 -10 -5 -10 -12 0 -6 -3 -9 -6 -6 -3 3 -1
41 5 85 35 259 41 341 31 368 -8 22 -7 34 9 60 18 31 18 34 1 86 -10 30 -20
88 -24 129 -3 41 -5 76 -6 78 0 1 -5 2 -11 2 -6 0 -44 23 -85 52 -69 47 -104
83 -129 132 -14 28 -32 30 -30 4 1 -13 8 -22 14 -21 6 2 11 -4 11 -12 0 -8 -6
-15 -14 -15 -7 0 -19 -7 -26 -15 -11 -13 -11 -20 0 -39 17 -33 9 -54 -12 -32
-39 39 -38 2 2 -44 24 -29 29 -44 30 -86 0 -38 -4 -53 -16 -58 -18 -7 -34 0
-34 16 0 5 7 7 16 4 27 -10 10 18 -19 32 -28 13 -35 28 -17 34 6 2 4 14 -4 30
-16 30 -37 120 -30 127 2 3 11 -4 19 -15 8 -10 15 -14 15 -9 0 13 -128 168
-144 174 -8 3 -7 0 1 -11z m303 -238 c0 -5 -2 -10 -4 -10 -3 0 -8 5 -11 10 -3
6 -1 10 4 10 6 0 11 -4 11 -10z m115 -60 c-3 -5 -10 -10 -16 -10 -5 0 -9 5 -9
10 0 6 7 10 16 10 8 0 12 -4 9 -10z m-21 -75 c-4 -8 -8 -15 -10 -15 -2 0 -4 7
-4 15 0 8 4 15 10 15 5 0 7 -7 4 -15z m-187 -96 c1 -19 -1 -27 -3 -17 -3 9
-17 19 -31 23 -24 6 -25 7 -7 20 27 21 39 13 41 -26z m-422 -280 c11 -17 -1
-21 -15 -4 -8 9 -8 15 -2 15 6 0 14 -5 17 -11z m435 -68 c0 -11 -4 -22 -9 -25
-5 -3 -8 6 -8 19 0 14 3 25 8 25 5 0 9 -9 9 -19z m-14 -57 c-3 -9 -6 -20 -6
-25 0 -5 -12 -9 -27 -8 -28 0 -28 1 -5 11 12 6 22 17 22 25 0 7 5 13 11 13 6
0 8 -7 5 -16z m267 -236 c-4 -7 -15 -13 -23 -13 -8 0 -17 -11 -21 -25 -4 -14
-7 -18 -8 -10 -2 30 11 59 24 54 7 -3 16 0 20 6 4 6 9 9 12 6 3 -2 1 -10 -4
-18z m-789 -3 c3 -8 1 -15 -4 -15 -6 0 -10 7 -10 15 0 8 2 15 4 15 2 0 6 -7
10 -15z"/>
<path d="M859 1170 c-3 -69 -3 -70 -17 -79 -7 -4 -12 -21 -10 -37 1 -16 -4
-39 -11 -51 -6 -13 -8 -23 -4 -23 12 0 10 -114 -2 -122 -7 -5 -7 -8 0 -8 19 0
30 15 32 45 1 17 7 50 12 75 5 25 12 60 14 78 3 18 10 38 15 45 11 15 10 97
-2 96 -5 0 -13 5 -17 13 -6 8 -9 -3 -10 -32z"/>
<path d="M2060 1085 c0 -8 -7 -15 -15 -15 -8 0 -15 -5 -15 -11 0 -5 6 -7 13
-3 9 6 9 4 1 -7 -6 -8 -11 -25 -12 -38 0 -14 -10 -37 -22 -52 -11 -16 -20 -33
-20 -39 0 -5 -5 -10 -10 -10 -7 0 -7 -6 0 -19 7 -13 7 -22 0 -26 -5 -3 -10 -1
-10 4 0 6 -8 11 -17 11 -17 -1 -17 -1 0 -11 10 -6 17 -22 17 -40 0 -18 -4 -28
-10 -24 -5 3 -20 -1 -32 -9 l-22 -16 21 0 c27 0 40 -19 22 -30 -7 -5 -14 -24
-15 -42 -2 -18 0 -25 2 -15 3 9 12 17 20 17 8 0 15 5 15 10 2 11 5 25 9 38 1
4 2 10 1 15 0 4 4 7 10 7 5 0 7 5 4 10 -3 6 -2 10 3 10 11 0 32 45 32 71 0 11
4 17 10 14 7 -4 7 2 0 19 -5 14 -5 28 -1 31 5 2 12 24 15 47 14 98 16 118 11
118 -3 0 -5 -7 -5 -15z"/>
<path d="M1384 1006 c23 -18 36 -20 36 -6 0 6 -4 10 -9 10 -5 0 -18 3 -28 6
-16 5 -16 4 1 -10z"/>
<path d="M2147 877 c-2 -6 -5 -16 -5 -21 0 -5 -4 -12 -9 -15 -12 -8 -73 -102
-73 -112 0 -5 -14 -38 -31 -74 -20 -40 -38 -65 -48 -65 -13 0 -14 -2 -2 -9 12
-8 13 -14 3 -36 -15 -32 -15 -35 0 -35 6 0 21 -9 33 -20 17 -16 35 -20 95 -20
41 0 86 2 100 4 14 2 47 5 74 5 27 1 47 4 43 7 -6 6 -106 6 -178 0 -63 -6 -84
9 -33 23 21 6 45 11 52 11 7 0 11 4 8 8 -3 5 12 14 32 21 20 8 51 24 69 37 17
13 35 24 38 24 14 0 75 33 75 40 0 13 -62 0 -90 -18 -65 -42 -192 -101 -206
-95 -9 3 -11 9 -6 12 5 3 12 16 16 29 10 31 -12 29 -24 -3 -5 -14 -16 -25 -25
-25 -19 0 -20 19 0 26 16 7 21 34 6 34 -5 0 -8 8 -6 18 2 9 4 21 4 26 1 4 8 6
16 3 8 -4 17 -2 20 3 4 6 1 10 -5 10 -18 0 -1 42 26 67 14 13 21 28 18 37 -4
11 0 16 12 16 15 0 16 2 5 9 -15 10 -8 61 11 72 7 4 7 9 0 13 -5 3 -12 0 -15
-7z"/>
<path d="M2205 757 c-70 -93 -101 -145 -92 -153 9 -9 38 9 33 21 -5 13 9 36
69 120 61 85 68 95 63 100 -2 3 -35 -37 -73 -88z"/>
<path d="M825 810 c-3 -5 1 -10 10 -10 9 0 13 5 10 10 -3 6 -8 10 -10 10 -2 0
-7 -4 -10 -10z"/>
<path d="M2290 730 c0 -5 4 -10 9 -10 6 0 13 5 16 10 3 6 -1 10 -9 10 -9 0
-16 -4 -16 -10z"/>
<path d="M1459 654 c-9 -18 -10 -30 -3 -42 15 -24 63 -57 71 -49 6 7 -35 104
-48 112 -3 3 -12 -7 -20 -21z"/>
<path d="M2550 640 c0 -39 -17 -90 -30 -90 -8 0 -44 -87 -56 -135 -4 -16 -7
-48 -8 -71 -1 -22 -10 -54 -21 -70 -15 -23 -19 -43 -16 -96 3 -64 -6 -97 -35
-125 -7 -7 -10 -22 -7 -33 5 -18 13 -20 94 -20 l89 0 0 340 c0 187 -2 340 -5
340 -3 0 -5 -18 -5 -40z"/>
<path d="M1833 610 c-5 -20 -33 -36 -33 -19 0 6 -4 8 -9 5 -5 -3 -7 -16 -5
-29 2 -12 2 -16 -2 -9 -7 16 -49 16 -66 -1 -9 -9 -50 -13 -128 -14 -63 -1
-114 -5 -113 -10 13 -54 27 -92 34 -88 4 3 12 -2 16 -10 5 -8 19 -17 30 -19
12 -3 31 -9 42 -15 28 -15 51 -14 51 4 0 26 29 16 46 -16 13 -26 13 -33 3 -40
-8 -4 -20 -3 -28 4 -12 10 -14 9 -8 -5 5 -16 1 -17 -41 -11 -26 3 -50 10 -53
15 -3 5 -9 3 -12 -6 -3 -8 -2 -17 4 -20 5 -2 4 -3 -3 -2 -7 1 -17 17 -23 34
-10 36 -25 43 -25 12 0 -50 26 -85 76 -102 46 -17 138 -23 113 -8 -16 10 -1
16 46 19 44 2 67 16 63 39 -2 9 7 19 22 23 14 4 21 7 17 8 -5 1 6 15 23 33 25
24 34 28 40 18 5 -8 4 -22 -1 -32 -18 -34 34 -14 59 22 25 37 28 50 10 50 -6
0 -8 -3 -5 -6 3 -4 2 -15 -4 -25 -12 -23 -45 -25 -53 -4 -8 22 -40 18 -51 -6
-9 -20 -33 -27 -28 -9 4 14 -61 -6 -65 -20 -5 -13 -3 -13 11 -1 10 7 17 9 17
3 0 -17 -25 -20 -51 -6 -13 7 -19 14 -14 14 6 1 0 5 -12 10 -23 9 -32 30 -13
30 5 0 7 7 4 15 -4 8 -1 15 5 15 6 0 11 -4 11 -10 0 -11 34 -9 38 3 6 18 1 29
-13 24 -8 -4 -17 -2 -20 3 -4 6 3 10 14 10 14 0 19 5 15 15 -4 8 -2 15 4 15 6
0 12 -5 14 -12 2 -6 10 -8 16 -4 7 4 10 16 7 27 -5 15 -1 19 19 19 14 0 26 5
26 10 0 6 6 10 14 10 16 0 28 24 20 44 -9 23 -45 28 -51 6z m-273 -114 c0 -3
-4 -8 -10 -11 -5 -3 -10 -1 -10 4 0 6 5 11 10 11 6 0 10 -2 10 -4z"/>
<path d="M2075 620 c-3 -5 1 -10 9 -10 9 0 16 5 16 10 0 6 -4 10 -9 10 -6 0
-13 -4 -16 -10z"/>
<path d="M468 598 c5 -5 16 -8 23 -6 8 3 3 7 -10 11 -17 4 -21 3 -13 -5z"/>
<path d="M2320 549 c-87 -17 -90 -18 -31 -14 35 3 74 5 86 5 11 0 30 7 41 15
22 17 25 17 -96 -6z"/>
<path d="M665 530 c-3 -5 -1 -10 4 -10 6 0 11 5 11 10 0 6 -2 10 -4 10 -3 0
-8 -4 -11 -10z"/>
<path d="M1908 533 c7 -3 16 -2 19 1 4 3 -2 6 -13 5 -11 0 -14 -3 -6 -6z"/>
<path d="M745 520 c-7 -12 2 -30 16 -30 5 0 9 9 9 20 0 21 -15 27 -25 10z"/>
<path d="M1833 513 c-7 -2 -13 -9 -13 -14 0 -14 24 -11 46 6 19 14 19 14 -1
14 -11 0 -26 -3 -32 -6z"/>
<path d="M2375 500 c-8 -13 5 -13 25 0 13 8 13 10 -2 10 -9 0 -20 -4 -23 -10z"/>
<path d="M1875 479 c-11 -17 -2 -18 25 -4 24 14 24 14 3 15 -12 0 -25 -5 -28
-11z"/>
<path d="M1976 475 c4 -8 8 -15 10 -15 2 0 4 7 4 15 0 8 -4 15 -10 15 -5 0 -7
-7 -4 -15z"/>
<path d="M2080 351 c0 -5 15 -13 33 -16 17 -4 44 -13 58 -21 15 -7 29 -10 33
-7 3 4 -15 15 -41 25 -74 28 -83 30 -83 19z"/>
<path d="M1867 325 c-4 -8 -3 -16 1 -19 4 -3 9 4 9 15 2 23 -3 25 -10 4z"/>
<path d="M1833 298 c3 -9 1 -19 -6 -21 -7 -2 -9 -7 -6 -11 12 -13 28 19 17 34
-8 13 -9 12 -5 -2z"/>
<path d="M2240 275 c34 -20 60 -20 34 0 -10 8 -28 14 -39 14 -18 0 -17 -1 5
-14z"/>
<path d="M1910 235 c-49 -37 -132 -70 -155 -61 -8 3 -17 1 -20 -4 -7 -11 -45
-7 -114 14 -30 9 -58 13 -63 10 -26 -16 124 -72 195 -73 22 0 59 10 85 23 67
35 160 129 125 125 -5 0 -28 -16 -53 -34z"/>
<path d="M1527 209 c7 -7 15 -10 18 -7 3 3 -2 9 -12 12 -14 6 -15 5 -6 -5z"/>
<path d="M540 121 c0 -6 4 -13 10 -16 6 -3 7 1 4 9 -7 18 -14 21 -14 7z"/>
<path d="M2151 115 c-1 -17 24 -82 38 -99 7 -9 22 -16 32 -16 16 0 14 6 -14
44 -17 24 -37 52 -44 62 -6 10 -12 15 -12 9z"/>
<path d="M478 83 c7 -3 16 -2 19 1 4 3 -2 6 -13 5 -11 0 -14 -3 -6 -6z"/>
<path d="M477 25 l-17 -24 50 1 c31 1 49 6 47 12 -2 6 -12 10 -21 8 -10 -2
-23 4 -29 12 -10 13 -14 12 -30 -9z"/>
<path d="M1260 30 c0 -19 3 -21 12 -12 9 9 9 15 0 24 -9 9 -12 7 -12 -12z"/>
</g>
</svg>
